<svg width="43" height="43" viewBox="0 0 43 43" fill="none" xmlns="http://www.w3.org/2000/svg">
<path d="M39.0977 16.3139C38.9329 16.0757 38.7129 15.8811 38.4564 15.7466C38.1999 15.6121 37.9146 15.5418 37.625 15.5417H13.1383L11.0707 10.5788C10.7996 9.9252 10.3405 9.36685 9.75171 8.97452C9.16289 8.58218 8.47083 8.37353 7.76327 8.37501H3.58331V11.9583H7.76327L16.2629 32.3565C16.3991 32.6828 16.6288 32.9616 16.923 33.1577C17.2173 33.3538 17.563 33.4584 17.9166 33.4583H32.25C32.9971 33.4583 33.6654 32.9943 33.9288 32.2973L39.3038 17.964C39.4054 17.6928 39.4397 17.401 39.4038 17.1136C39.3679 16.8262 39.2629 16.5518 39.0977 16.3139ZM31.0084 29.875H19.1117L14.6325 19.125H35.0396L31.0084 29.875Z" fill="#444444"/>
<path d="M18.8125 37.625C20.2968 37.625 21.5 36.4218 21.5 34.9375C21.5 33.4532 20.2968 32.25 18.8125 32.25C17.3282 32.25 16.125 33.4532 16.125 34.9375C16.125 36.4218 17.3282 37.625 18.8125 37.625Z" fill="#444444"/>
<path d="M31.3542 37.625C32.8385 37.625 34.0417 36.4218 34.0417 34.9375C34.0417 33.4532 32.8385 32.25 31.3542 32.25C29.8699 32.25 28.6667 33.4532 28.6667 34.9375C28.6667 36.4218 29.8699 37.625 31.3542 37.625Z" fill="#444444"/>
</svg>
