<svg width="20" height="20" viewBox="0 0 20 20" fill="none" xmlns="http://www.w3.org/2000/svg">
<path fill-rule="evenodd" clip-rule="evenodd" d="M6.66668 10.8333C6.50189 10.8334 6.34081 10.8823 6.2038 10.9738C6.06679 11.0654 5.96001 11.1955 5.89695 11.3478C5.83389 11.5 5.81739 11.6676 5.84953 11.8292C5.88167 11.9908 5.96101 12.1393 6.07752 12.2558L9.41085 15.5892C9.56712 15.7454 9.77905 15.8331 10 15.8331C10.221 15.8331 10.4329 15.7454 10.5892 15.5892L13.9225 12.2558C14.039 12.1393 14.1184 11.9908 14.1505 11.8292C14.1826 11.6676 14.1661 11.5 14.1031 11.3478C14.04 11.1955 13.9332 11.0654 13.7962 10.9738C13.6592 10.8823 13.4981 10.8334 13.3333 10.8333H6.66668Z" fill="black"/>
<path d="M13.796 9.02596C13.659 9.11753 13.4979 9.16642 13.3331 9.16646L6.66644 9.16646C6.50164 9.16642 6.34056 9.11753 6.20355 9.02596C6.06655 8.93439 5.95976 8.80425 5.89671 8.652C5.83365 8.49975 5.81714 8.33223 5.84928 8.1706C5.88142 8.00897 5.96076 7.8605 6.07727 7.74396L9.4106 4.41063C9.56688 4.2544 9.7788 4.16664 9.99977 4.16664C10.2207 4.16664 10.4327 4.2544 10.5889 4.41063L13.9223 7.74396C14.0388 7.8605 14.1181 8.00897 14.1503 8.1706C14.1824 8.33223 14.1659 8.49975 14.1028 8.652C14.0398 8.80425 13.933 8.93439 13.796 9.02596Z" fill="black"/>
</svg>
